<?xml version="1.0" encoding="utf-8"?>
<!-- Generator: Adobe Illustrator 27.5.0, SVG Export Plug-In . SVG Version: 6.00 Build 0)  -->
<svg version="1.1" xmlns="http://www.w3.org/2000/svg" xmlns:xlink="http://www.w3.org/1999/xlink" x="0px" y="0px"
	 viewBox="0 0 500 300" style="enable-background:new 0 0 500 300;" xml:space="preserve">
<g id="Background">
	<rect width="500" height="300"/>
</g>
<g id="Object">
	<g>
		<defs>
			<rect id="SVGID_1_" width="500" height="300"/>
		</defs>
		<clipPath id="SVGID_00000061449725867279533650000017783113337583013510_">
			<use xlink:href="#SVGID_1_"  style="overflow:visible;"/>
		</clipPath>
		<g style="clip-path:url(#SVGID_00000061449725867279533650000017783113337583013510_);">
			<g>
				<polygon style="fill:#FFFFFF;" points="297.48,37.261 305.42,37.261 319.086,23.594 330.48,23.594 330.48,22.177 
					351.355,22.177 351.355,23.594 403.48,23.594 393.876,13.99 297.48,13.99 				"/>
				<path style="fill:#FFFFFF;" d="M23.132,60.927v45.322l5.733,5.733l29.554-29.554h9.936v-1.479h7.25v1.479H95.92l29.811-29.811
					V34.427H78.98v26.5H56.855v2.375H36.834v-2.375H23.132z M110.918,47.844h2.875v-2.875h1.75v2.875h2.875v1.75h-2.875v2.875h-1.75
					v-2.875h-2.875V47.844z M41.209,83.177c0,2.416-1.958,4.374-4.375,4.375c-2.417-0.001-4.375-1.959-4.375-4.375
					c0-2.417,1.958-4.375,4.375-4.375C39.251,78.803,41.209,80.761,41.209,83.177z"/>
				<path style="fill:#FFFFFF;" d="M377.23,25.094v14.372h35.071l57.515,57.515h7.051L404.98,25.094H377.23z M387.73,36.937
					c-2.417,0-4.375-1.958-4.375-4.375c0-2.417,1.958-4.375,4.375-4.375c2.417,0,4.374,1.958,4.375,4.375
					C392.105,34.979,390.147,36.937,387.73,36.937z"/>
				<rect x="239.23" y="31.083" style="fill:#FFFFFF;" width="40.5" height="2.958"/>
				<path style="fill:#FFFFFF;" d="M33.959,83.177c0.003,1.587,1.288,2.872,2.875,2.875c1.587-0.003,2.872-1.288,2.875-2.875
					c-0.003-1.587-1.288-2.872-2.875-2.875C35.247,80.305,33.962,81.59,33.959,83.177z M39.064,83.177
					c0,1.231-0.998,2.229-2.229,2.229c-1.231,0-2.229-0.998-2.229-2.229c0-1.231,0.998-2.229,2.229-2.229
					C38.066,80.948,39.064,81.946,39.064,83.177z"/>
				<path style="fill:#FFFFFF;" d="M109.23,14.85v18.078h52.416v-11h25.728l15.333,15.334h8.523v-1.167h18.667v1.167h66.084V13.99
					h-15.294v12.084h-73.435V13.99L109.23,14.85z M112.418,30.333h-1.625v-9.688h1.625V30.333z M116.355,30.333h-1.625v-9.688h1.625
					V30.333z M120.293,30.333h-1.625v-9.688h1.625V30.333z M124.23,30.333h-1.625v-9.688h1.625V30.333z M128.168,30.333h-1.625
					v-9.688h1.625V30.333z M132.105,30.333h-1.625v-9.688h1.625V30.333z M136.043,30.333h-1.625v-9.688h1.625V30.333z
					 M139.98,30.333h-1.625v-9.688h1.625V30.333z M143.918,30.333h-1.625v-9.688h1.625V30.333z M147.855,30.333h-1.625v-9.688h1.625
					V30.333z M151.793,30.333h-1.625v-9.688h1.625V30.333z M155.73,30.333h-1.625v-9.688h1.625V30.333z M159.668,30.333h-1.625
					v-9.688h1.625V30.333z M237.73,29.583h43.5v5.209v0.75h-43.5V29.583z"/>
				<polygon style="fill:#FFFFFF;" points="476.064,191.344 476.064,188.677 476.064,174.344 465.23,174.344 465.23,188.927 
					467.397,188.927 467.397,210.802 465.23,210.802 465.23,215.052 476.064,215.052 				"/>
				<polygon style="fill:#FFFFFF;" points="59.041,83.927 45.355,97.613 45.355,112.927 50.355,112.927 50.355,111.802 
					78.23,111.802 78.23,112.927 81.98,112.927 81.98,83.927 75.605,83.927 75.605,85.406 68.355,85.406 68.355,83.927 				"/>
				<path style="fill:#FFFFFF;" d="M101.889,130.372v-19.867l25.18-25.18l-15.963-15.963L96.541,83.927H83.48v30.5h-5.25v1.25
					H50.355v-1.25h-6.5V99.113l-13.93,13.93l8.106,8.106h48.247v9.224H101.889z M85.855,108.552V90.427
					c0-1.243,1.007-2.25,2.25-2.25s2.25,1.007,2.25,2.25v18.125c0,1.243-1.007,2.25-2.25,2.25S85.855,109.795,85.855,108.552z"/>
				<path style="fill:#FFFFFF;" d="M172.193,257.079l-16.152,16.152h-8.686v2.32h-8.125v-2.32h-10.689l8.695,8.695h65.684
					l-12.19-12.189v-12.658H172.193z M179.536,272.482v0.75h-7.93v-7.93h7.93V272.482z"/>
				<path style="fill:#FFFFFF;" d="M387.73,29.687c-1.587,0.003-2.872,1.288-2.875,2.875c0.003,1.587,1.288,2.872,2.875,2.875
					c1.587-0.003,2.872-1.288,2.875-2.875C390.603,30.975,389.318,29.69,387.73,29.687z M387.73,34.792
					c-1.231,0-2.229-0.998-2.229-2.229c0-1.231,0.998-2.229,2.229-2.229c1.231,0,2.229,0.998,2.229,2.229
					C389.959,33.794,388.961,34.792,387.73,34.792z"/>
				<path style="fill:#FFFFFF;" d="M175.73,32.427c-1.587,0.003-2.872,1.288-2.875,2.875c0.003,1.587,1.288,2.872,2.875,2.875
					c1.587-0.003,2.872-1.288,2.875-2.875C178.602,33.715,177.318,32.43,175.73,32.427z M175.73,37.531
					c-1.231,0-2.229-0.998-2.229-2.229c0-1.231,0.998-2.229,2.229-2.229c1.231,0,2.229,0.998,2.229,2.229
					C177.959,36.533,176.961,37.531,175.73,37.531z"/>
				<path style="fill:#FFFFFF;" d="M361.67,261.677l14.75-14.75h10.561v-13.292h-32.027l-20.292,20.292h-55.917l-8.083-8.083
					h-14.454l8.273,8.273v7.561h24.25v-2.25h57.375v2.25H361.67z M357.397,239.74c2.416,0,4.374,1.959,4.375,4.375
					c-0.001,2.416-1.959,4.374-4.375,4.375c-2.417-0.001-4.375-1.959-4.375-4.375C353.022,241.699,354.98,239.74,357.397,239.74z"/>
				<path style="fill:#FFFFFF;" d="M46.041,32.927h61.689V14.863l-64.732,0.568l-7.227,7.227L46.041,32.927z M49.355,22.594h2.875
					v-2.875h1.75v2.875h2.875v1.75H53.98v2.875h-1.75v-2.875h-2.875V22.594z"/>
				<path style="fill:#FFFFFF;" d="M202.086,38.761l-15.333-15.334h-23.606v11H127.23v18.81l-15.064,15.065l15.963,15.963
					l8.171-8.171V55.518l9.756-9.756h193.166l6.297-6.297h30.212V25.094h-24.375v1.333H330.48v-1.333h-10.773l-13.667,13.667
					h-76.144v1.083H211.23v-1.083H202.086z M175.73,39.677c-2.416,0-4.374-1.958-4.375-4.375c0.001-2.417,1.959-4.375,4.375-4.375
					c2.417,0.001,4.375,1.959,4.375,4.375C180.105,37.719,178.147,39.677,175.73,39.677z M348.173,34.792h21.448
					c0.889,0,1.609,0.72,1.609,1.609c0,0.889-0.721,1.609-1.609,1.609h-21.448c-0.889,0-1.609-0.721-1.609-1.609
					C346.564,35.512,347.284,34.792,348.173,34.792z"/>
				<polygon style="fill:#FFFFFF;" points="126.42,273.232 107.364,273.232 23.87,189.738 23.87,195.469 110.328,281.927 
					135.115,281.927 				"/>
				<rect x="379.73" y="251.989" style="fill:#FFFFFF;" width="37.75" height="2.091"/>
				<path style="fill:#FFFFFF;" d="M219.48,271.732v-10.055h43.5v-6.939l-8.894-8.894h-87.591l-18.5,18.5h-41.333l-75.667-75.667
					h-6.065l83.055,83.055h31.245v-2.465h8.125v2.465h8.065l16.152-16.152h37.908v16.152H219.48z M255.355,251.239v7.183
					l-6.221-3.592L255.355,251.239z M246.189,251.239v7.183l-6.221-3.592L246.189,251.239z M237.022,251.239v7.183l-6.22-3.592
					L237.022,251.239z M227.855,251.239v7.183l-6.221-3.592L227.855,251.239z M210.939,265.177h2.875v-2.875h1.75v2.875h2.875v1.75
					h-2.875v2.875h-1.75v-2.875h-2.875V265.177z"/>
				<path style="fill:#FFFFFF;" d="M462.863,241.211l13.201-13.201v-11.458h-22.398l-19.625,19.625l19.439,19.439v5.186h1.125v11.68
					h-1.125v3.945h-55.25v9.583h77.9v-9.733l-13.267-13.267V241.211z M444.751,281.532h-38.042c-1.001,0-1.813-0.811-1.813-1.813
					c0-1.001,0.811-1.813,1.813-1.813h38.042c1.001,0,1.813,0.812,1.813,1.813C446.564,280.72,445.752,281.532,444.751,281.532z
					 M467.397,273.532c2.416,0.001,4.374,1.958,4.375,4.375c-0.001,2.416-1.959,4.374-4.375,4.375
					c-2.417-0.001-4.375-1.959-4.375-4.375C463.022,275.49,464.98,273.533,467.397,273.532z"/>
				<path style="fill:#FFFFFF;" d="M357.397,246.99c1.587-0.003,2.872-1.287,2.875-2.875c-0.003-1.588-1.288-2.872-2.875-2.875
					c-1.587,0.003-2.872,1.287-2.875,2.875C354.525,245.702,355.81,246.987,357.397,246.99z M357.397,241.885
					c1.231,0,2.229,0.998,2.229,2.229c0,1.231-0.998,2.23-2.229,2.23c-1.231,0-2.229-0.998-2.229-2.23
					C355.168,242.883,356.166,241.885,357.397,241.885z"/>
				<path style="fill:#FFFFFF;" d="M463.73,188.927v-14.583h-2.902l-8.667,8.667v5.667h-23.833v24.646h-14.354l-20.313,20.313
					h-5.181v13.292h32.689l31.875-31.875h10.686v-4.25h-2.125v-21.875H463.73z M418.23,227.302h-2.875v2.875h-1.75v-2.875h-2.875
					v-1.75h2.875v-2.875h1.75v2.875h2.875V227.302z M450.73,194.51h-19.5v-3.271h19.5V194.51z"/>
				<path style="fill:#FFFFFF;" d="M467.397,280.782c1.587-0.003,2.872-1.288,2.875-2.875c-0.003-1.588-1.288-2.872-2.875-2.875
					c-1.587,0.003-2.872,1.287-2.875,2.875C464.525,279.493,465.81,280.779,467.397,280.782z M467.397,275.677
					c1.231,0,2.229,0.998,2.229,2.229c0,1.23-0.998,2.229-2.229,2.229c-1.231,0-2.229-0.998-2.229-2.229
					C465.168,276.675,466.166,275.677,467.397,275.677z"/>
				<path style="fill:#FFFFFF;" d="M396.73,274.927h55.25v-2.445h-1.25v-11.68h1.25v-4.564l-19-19l-11.189,11.189h-44.75
					l-14.75,14.75h-16.186v2H288.73v-2h-67.75v10.055h-13v-16.152h-15.75v12.037l12.811,12.811h28.537l11.75-11.75h116.167
					l15.833,15.833h19.402V274.927z M378.23,250.489h40.75v4.341v0.75h-40.75V250.489z"/>
				<path style="fill:#FFFFFF;" d="M36.834,59.427v-2.375h20.021v2.375H77.48v-25H45.42L34.711,23.718L23.132,35.297v24.13H36.834z
					 M59.98,41.261h13.166v12.417v0.75H59.98V41.261z"/>
				<rect x="173.105" y="266.802" style="fill:#FFFFFF;" width="4.93" height="4.93"/>
				<rect x="61.48" y="42.761" style="fill:#FFFFFF;" width="10.167" height="10.167"/>
			</g>
			<polygon style="fill:#3A3A3A;" points="33.064,184.51 64.23,215.677 69.314,210.594 85.73,227.01 85.73,232.177 113.46,259.906 
				143.956,259.906 157.218,246.644 157.218,240.01 148.564,240.01 148.564,247.656 140.144,256.076 120.064,256.076 
				120.064,239.177 105.327,224.441 97.064,224.441 97.064,216.344 74.147,193.427 67.314,200.26 52.564,185.51 			"/>
			<g>
				<polygon style="fill:#3A3A3A;" points="24.917,258.12 24.917,260.96 49.688,285.732 52.543,285.746 				"/>
				<polygon style="fill:#3A3A3A;" points="44.833,285.708 47.687,285.722 24.917,262.952 24.917,265.792 				"/>
				<polygon style="fill:#3A3A3A;" points="32.028,244.115 27.298,248.845 64.256,285.803 106.48,286.01 72.89,252.42 63.98,252.42 
					48.139,236.579 48.139,227.427 24.88,204.168 24.88,218.177 32.028,225.325 				"/>
				<polygon style="fill:#3A3A3A;" points="24.917,267.784 24.917,269.802 40.803,285.688 42.832,285.698 				"/>
				<polygon style="fill:#3A3A3A;" points="26.302,249.841 24.917,251.225 24.917,251.296 59.4,285.779 62.254,285.793 				"/>
				<polygon style="fill:#3A3A3A;" points="24.917,253.288 24.917,256.128 54.544,285.755 57.399,285.769 				"/>
			</g>
			<polygon style="fill:#3A3A3A;" points="210.73,13.99 275.064,13.99 275.064,19.177 266.064,19.177 261.939,23.302 
				232.564,23.302 232.564,18.646 210.73,18.646 			"/>
			<g>
				<path style="fill:#3A3A3A;" d="M209.23,57.872c-2.019,0-3.656,1.637-3.656,3.656c0,2.019,1.637,3.656,3.656,3.656
					c2.019,0,3.656-1.637,3.656-3.656C212.887,59.509,211.25,57.872,209.23,57.872z M209.23,64.112
					c-1.427,0-2.583-1.157-2.583-2.583c0-1.427,1.157-2.584,2.583-2.584c1.427,0,2.584,1.157,2.584,2.584
					C211.814,62.956,210.657,64.112,209.23,64.112z"/>
				<path style="fill:#3A3A3A;" d="M165.73,57.872c-2.019,0-3.656,1.637-3.656,3.656c0,2.019,1.637,3.656,3.656,3.656
					c2.019,0,3.656-1.637,3.656-3.656C169.387,59.509,167.75,57.872,165.73,57.872z M165.73,64.112
					c-1.427,0-2.583-1.157-2.583-2.583c0-1.427,1.157-2.584,2.583-2.584c1.427,0,2.584,1.157,2.584,2.584
					C168.314,62.956,167.157,64.112,165.73,64.112z"/>
				<path style="fill:#3A3A3A;" d="M194.73,57.872c-2.019,0-3.656,1.637-3.656,3.656c0,2.019,1.637,3.656,3.656,3.656
					c2.019,0,3.656-1.637,3.656-3.656C198.387,59.509,196.75,57.872,194.73,57.872z M194.73,64.112
					c-1.427,0-2.583-1.157-2.583-2.583c0-1.427,1.157-2.584,2.583-2.584c1.427,0,2.584,1.157,2.584,2.584
					C197.314,62.956,196.157,64.112,194.73,64.112z"/>
				<path style="fill:#3A3A3A;" d="M223.73,57.872c-2.019,0-3.656,1.637-3.656,3.656c0,2.019,1.637,3.656,3.656,3.656
					c2.019,0,3.656-1.637,3.656-3.656C227.387,59.509,225.75,57.872,223.73,57.872z M223.73,64.112
					c-1.427,0-2.583-1.157-2.583-2.583c0-1.427,1.157-2.584,2.583-2.584c1.427,0,2.584,1.157,2.584,2.584
					C226.314,62.956,225.157,64.112,223.73,64.112z"/>
				<path style="fill:#3A3A3A;" d="M404.897,46.927H357.98l-7.5,7.5h-43.75v5h-69.709v-6.406h-78.979v16.342h72.759v3.842H331.23
					V69.49h47V58.479h20.948l26.927,26.927v6.646h12.771V80.906L404.897,46.927z M165.73,66.216c-2.589,0-4.688-2.099-4.688-4.688
					c0-2.589,2.099-4.688,4.688-4.688c2.589,0,4.688,2.099,4.688,4.688C170.418,64.118,168.319,66.216,165.73,66.216z
					 M180.23,66.216c-2.589,0-4.688-2.099-4.688-4.688c0-2.589,2.099-4.688,4.688-4.688c2.589,0,4.688,2.099,4.688,4.688
					C184.918,64.118,182.819,66.216,180.23,66.216z M194.73,66.216c-2.589,0-4.688-2.099-4.688-4.688
					c0-2.589,2.099-4.688,4.688-4.688c2.589,0,4.688,2.099,4.688,4.688C199.418,64.118,197.319,66.216,194.73,66.216z
					 M209.23,66.216c-2.589,0-4.688-2.099-4.688-4.688c0-2.589,2.099-4.688,4.688-4.688c2.589,0,4.688,2.099,4.688,4.688
					C213.918,64.118,211.819,66.216,209.23,66.216z M223.73,66.216c-2.589,0-4.688-2.099-4.688-4.688
					c0-2.589,2.099-4.688,4.688-4.688c2.589,0,4.688,2.099,4.688,4.688C228.418,64.118,226.319,66.216,223.73,66.216z
					 M371.23,63.357h-43.5v-3.656h43.5V63.357z"/>
				<path style="fill:#3A3A3A;" d="M180.23,57.872c-2.019,0-3.656,1.637-3.656,3.656c0,2.019,1.637,3.656,3.656,3.656
					c2.019,0,3.656-1.637,3.656-3.656C183.887,59.509,182.25,57.872,180.23,57.872z M180.23,64.112
					c-1.427,0-2.583-1.157-2.583-2.583c0-1.427,1.157-2.584,2.583-2.584c1.427,0,2.584,1.157,2.584,2.584
					C182.814,62.956,181.657,64.112,180.23,64.112z"/>
			</g>
			<g>
				
					<rect x="462.082" y="17.09" transform="matrix(0.7071 -0.7071 0.7071 0.7071 114.8604 336.3463)" style="fill:#3A3A3A;" width="2.708" height="24.868"/>
				<polygon style="fill:#3A3A3A;" points="451.66,22.021 447.83,22.021 470.799,44.989 470.799,41.159 				"/>
				<polygon style="fill:#3A3A3A;" points="470.799,51.176 470.799,47.346 445.473,22.021 443.262,22.021 435.23,13.99 
					433.612,13.99 				"/>
				<polygon style="fill:#3A3A3A;" points="476.868,20.122 476.868,16.287 473.032,16.287 				"/>
				<polygon style="fill:#3A3A3A;" points="470.675,16.287 466.845,16.287 476.868,26.309 476.868,22.479 				"/>
				
					<rect x="465.176" y="13.997" transform="matrix(0.7071 -0.7071 0.7071 0.7071 117.954 337.6277)" style="fill:#3A3A3A;" width="2.708" height="24.868"/>
				<polygon style="fill:#3A3A3A;" points="470.799,55.677 470.799,53.534 431.255,13.99 417.206,13.99 417.206,32.212 
					433.73,48.736 443.421,48.736 465.737,71.052 465.737,80.921 476.868,92.052 476.083,60.961 				"/>
				<polygon style="fill:#3A3A3A;" points="464.488,16.287 460.658,16.287 476.868,32.497 476.868,28.666 				"/>
			</g>
			<path style="fill:#FFFFFF;" d="M351.215,281.427h8.412v1h-8.412v1.141h-18.63v-1.141h-6.021v-7.417h-77.429v-1h78.429v7.417
				h5.021v-1.141h18.63V281.427z M216.606,232.593l-18.631,0.001v1.25h-57.578v10.745h-14.149V227.93l-5.052-5.053l0.779-0.778
				l-13.174-13.174l-0.778,0.778l-9.419-9.418h-9.275l-23.442-23.441H23.87v1h41.603l23.442,23.441h9.274l9.126,9.125l-0.835,0.835
				l13.174,13.173l0.834-0.834l4.76,4.76v17.245h16.149v-10.745h56.578v1.031h18.631v-1.031h4.529v4.895h1v-5.895h-5.529V232.593z
				 M443.111,101.177v-1.209h-18.63v1.209h-7.563v-12.52l-10.98-10.98H373.48v10h-28.62v-1.292h-18.63v1.292h-59.5v-7.844h-46.656
				v-1.141h-37.26v1.141h-30.51l-38.136,38.137v24.457H74.932v-12.555H39.064v1h34.868v12.555h41.236v-25.043l37.551-37.551h30.095
				v1.141h37.26v-1.141h45.656v7.844h60.5v0.99h18.63v-0.99h29.62v-10h31.043l10.395,10.395v13.105h8.563v1.073h18.63v-1.073h4.72
				v-1H443.111z M439.355,178.202h-13.001v1.142h-5.624v25.911h-11.629l-20.828,20.828H350.93l-21.906,21.906h-16.626v1h17.04
				l21.906-21.906h37.344l20.828-20.828h12.215v-25.911h4.624v1.14h13.001v-1.14h4.708v-1h-4.708V178.202z"/>
		</g>
	</g>
</g>
</svg>
